<?xml version="1.0" standalone="no"?><!DOCTYPE svg PUBLIC "-//W3C//DTD SVG 1.1//EN" "http://www.w3.org/Graphics/SVG/1.1/DTD/svg11.dtd"><svg t="1775693862279" class="icon" viewBox="0 0 1024 1024" version="1.1" xmlns="http://www.w3.org/2000/svg" p-id="1673" xmlns:xlink="http://www.w3.org/1999/xlink" width="200" height="200"><path d="M620.8 832H192V128h384v160c0 19.2 12.8 32 32 32h160v364.8l64 64V288l-224-224H160c-19.2 0-32 12.8-32 32v768c0 19.2 12.8 32 32 32h524.8l-64-64z" fill="#ffffff" p-id="1674"></path><path d="M512 384c105.6 0 192 86.4 192 192 0 38.4-12.8 73.6-32 105.6l147.2 147.2c16 16 16 41.6 0 54.4-16 16-41.6 16-54.4 0L617.6 736c-28.8 19.2-67.2 32-105.6 32-105.6 0-192-86.4-192-192s86.4-192 192-192z m0 320c70.4 0 128-57.6 128-128s-57.6-128-128-128-128 57.6-128 128 57.6 128 128 128z" fill="#ffffff" p-id="1675"></path></svg>